<?xml version="1.0" encoding="UTF-8"?>
<svg xmlns="http://www.w3.org/2000/svg" xmlns:xlink="http://www.w3.org/1999/xlink" width="56px" height="56px" viewBox="0 0 56 56" version="1.1">
<g id="surface1">
<path style="fill:none;stroke-width:12;stroke-linecap:round;stroke-linejoin:round;stroke:rgb(27.843137%,27.843137%,27.843137%);stroke-opacity:1;stroke-miterlimit:4;" d="M 67.995536 138 L 60 154.004464 C 49.808036 149.758929 39.254464 145.513393 28.044643 138.200893 C 24.133929 135.65625 21.75 131.316964 21.65625 126.65625 C 21.174107 102.683036 26.799107 78.602679 41.035714 53.129464 C 42.897321 49.794643 46.004464 47.34375 49.59375 46.071429 C 58.191964 43.017857 64.017857 40.660714 73.995536 39 L 79.995536 49.995536 C 79.995536 49.995536 85.995536 48 96 48 C 106.004464 48 112.004464 49.995536 112.004464 49.995536 L 118.004464 39 C 127.982143 40.660714 133.808036 43.017857 142.40625 46.071429 C 145.995536 47.34375 149.102679 49.794643 150.964286 53.129464 C 165.200893 78.602679 170.825893 102.683036 170.34375 126.65625 C 170.25 131.316964 167.866071 135.65625 163.955357 138.200893 C 152.745536 145.513393 142.191964 149.758929 132 154.004464 L 124.004464 138 M 55.995536 130.004464 C 55.995536 130.004464 76.004464 139.995536 96 139.995536 C 115.995536 139.995536 136.004464 130.004464 136.004464 130.004464 " transform="matrix(0.291667,0,0,0.291667,0,0)"/>
<path style=" stroke:none;fill-rule:nonzero;fill:rgb(27.843137%,27.843137%,27.843137%);fill-opacity:1;" d="M 24.5 29.457031 C 24.5 27.042969 22.800781 25.082031 20.707031 25.082031 C 18.613281 25.082031 16.917969 27.042969 16.917969 29.457031 C 16.917969 31.875 18.613281 33.832031 20.707031 33.832031 C 22.800781 33.832031 24.5 31.875 24.5 29.457031 Z M 24.5 29.457031 "/>
<path style=" stroke:none;fill-rule:nonzero;fill:rgb(27.843137%,27.843137%,27.843137%);fill-opacity:1;" d="M 39.082031 29.457031 C 39.082031 27.042969 37.386719 25.082031 35.292969 25.082031 C 33.199219 25.082031 31.5 27.042969 31.5 29.457031 C 31.5 31.875 33.199219 33.832031 35.292969 33.832031 C 37.386719 33.832031 39.082031 31.875 39.082031 29.457031 Z M 39.082031 29.457031 "/>
</g>
</svg>
